# xmcd CD database file
#
# Track frame offsets:
#	150
#	19395
#	40497
#	59705
#
# Disc length: 1074 seconds
#
# Revision: 1
# Processed by: cddbd v1.5.2PL0 Copyright (c) Steve Scherf et al.
# Submitted via: CDex 1.70beta2
#
DISCID=38043004
DTITLE=源氏　第一部下巻エンディング・テーマ - 愛、忘れないで
DYEAR=1992
DGENRE=Anime
TTITLE0=狂おしい夏
TTITLE1=愛、忘れないで
TTITLE2=狂おしい夏（カラオケ）
TTITLE3=愛、忘れないで（カラオケ）
EXTD=CD Single YEAR: 1992
EXTT0=
EXTT1=
EXTT2=
EXTT3=
PLAYORDER=
